<svg width="333" height="53" viewBox="0 0 333 53" fill="none" xmlns="http://www.w3.org/2000/svg">
  <path d="M50.0977 52H37.7227L34.1367 40.7852H16.207L12.6562 52H0.351562L18.7031 1.58594H32.168L50.0977 52ZM31.5352 32.0664L26.1211 15.1211C25.7227 13.8555 25.4414 12.3438 25.2773 10.5859H24.9961C24.8789 12.0625 24.5859 13.5273 24.1172 14.9805L18.6328 32.0664H31.5352ZM83.1741 52H53.1506V1.58594H64.5061V42.7891H83.1741V52Z" fill="#FA0A0A" class='alforno__al' />
  <path class='alforno__forno' d="M132.557 10.832H114.768V23.207H131.116V32.418H114.768V52H103.413V1.58594H132.557V10.832ZM158.954 52.8789C151.735 52.8789 145.852 50.5352 141.306 45.8477C136.759 41.1367 134.485 35.0078 134.485 27.4609C134.485 19.4922 136.794 13.0469 141.411 8.125C146.028 3.20312 152.145 0.742188 159.763 0.742188C166.958 0.742188 172.77 3.09766 177.2 7.80859C181.653 12.5195 183.88 18.7305 183.88 26.4414C183.88 34.3633 181.571 40.75 176.954 45.6016C172.36 50.4531 166.36 52.8789 158.954 52.8789ZM159.446 10.5156C155.462 10.5156 152.298 12.0156 149.954 15.0156C147.61 17.9922 146.438 21.9414 146.438 26.8633C146.438 31.8555 147.61 35.8047 149.954 38.7109C152.298 41.6172 155.368 43.0703 159.165 43.0703C163.079 43.0703 166.185 41.6641 168.481 38.8516C170.778 36.0156 171.927 32.0898 171.927 27.0742C171.927 21.8477 170.813 17.7812 168.587 14.875C166.36 11.9688 163.313 10.5156 159.446 10.5156ZM231.335 52H218.292L210.452 39.0273C209.866 38.043 209.304 37.1641 208.765 36.3906C208.226 35.6172 207.675 34.9609 207.113 34.4219C206.573 33.8594 205.999 33.4375 205.39 33.1562C204.804 32.8516 204.159 32.6992 203.456 32.6992H200.398V52H189.042V1.58594H207.042C219.277 1.58594 225.394 6.15625 225.394 15.2969C225.394 17.0547 225.124 18.6836 224.585 20.1836C224.046 21.6602 223.284 22.9961 222.3 24.1914C221.316 25.3867 220.12 26.418 218.714 27.2852C217.331 28.1523 215.784 28.832 214.073 29.3242V29.4648C214.823 29.6992 215.55 30.0859 216.253 30.625C216.956 31.1406 217.636 31.75 218.292 32.4531C218.948 33.1562 219.57 33.918 220.155 34.7383C220.765 35.5352 221.316 36.3203 221.808 37.0938L231.335 52ZM200.398 10.0938V24.1211H205.32C207.757 24.1211 209.714 23.418 211.191 22.0117C212.691 20.582 213.441 18.8125 213.441 16.7031C213.441 12.2969 210.804 10.0938 205.53 10.0938H200.398ZM278.193 52H266.732L245.955 20.3242C244.736 18.4727 243.892 17.0781 243.423 16.1406H243.283C243.47 17.9219 243.564 20.6406 243.564 24.2969V52H232.841V1.58594H245.076L265.08 32.2773C265.994 33.6602 266.837 35.0312 267.611 36.3906H267.751C267.564 35.2188 267.47 32.9102 267.47 29.4648V1.58594H278.193V52ZM307.789 52.8789C300.57 52.8789 294.687 50.5352 290.14 45.8477C285.593 41.1367 283.32 35.0078 283.32 27.4609C283.32 19.4922 285.629 13.0469 290.246 8.125C294.863 3.20312 300.98 0.742188 308.597 0.742188C315.793 0.742188 321.605 3.09766 326.035 7.80859C330.488 12.5195 332.715 18.7305 332.715 26.4414C332.715 34.3633 330.406 40.75 325.789 45.6016C321.195 50.4531 315.195 52.8789 307.789 52.8789ZM308.281 10.5156C304.297 10.5156 301.133 12.0156 298.789 15.0156C296.445 17.9922 295.273 21.9414 295.273 26.8633C295.273 31.8555 296.445 35.8047 298.789 38.7109C301.133 41.6172 304.203 43.0703 308 43.0703C311.914 43.0703 315.019 41.6641 317.316 38.8516C319.613 36.0156 320.761 32.0898 320.761 27.0742C320.761 21.8477 319.648 17.7812 317.422 14.875C315.195 11.9688 312.148 10.5156 308.281 10.5156Z" fill="white" />
</svg>