<svg width="87" height="91" viewBox="0 0 87 91" fill="none" xmlns="http://www.w3.org/2000/svg">
<g clip-path="url(#clip0)" filter="url(#filter0_d)">
<path d="M50.0042 3.57402C52.2579 3.03794 54.5874 4.3203 55.4922 6.70721L58.736 15.262C32.3218 19.5787 16.9344 41.5449 19.6209 70.9315L11.2481 69.5047C8.93641 69.1102 7.24201 66.8868 7.17492 64.3078C6.43257 35.5629 24.636 9.61799 50.0042 3.57402ZM60.5597 20.0674L82.4322 77.7619C82.5912 78.181 82.6484 78.6362 82.5982 79.0814C82.548 79.5266 82.3922 79.9462 82.1463 80.2978C81.9005 80.6494 81.5733 80.9206 81.1979 81.084C80.8225 81.2474 80.4121 81.2973 80.0081 81.2286L24.2759 71.7211C21.3056 44.2061 35.7072 23.624 60.5606 20.0737L60.5597 20.0674ZM62.8671 68.243C63.7619 68.1265 64.5983 67.7181 65.2704 67.0696C65.9426 66.421 66.4203 65.5615 66.6433 64.5995C66.8662 63.6376 66.8243 62.6166 66.5229 61.6655C66.2215 60.7145 65.674 59.8761 64.9498 59.2565C64.2257 58.6368 63.3572 58.2637 62.4544 58.1843C61.5515 58.105 60.6548 58.3229 59.8776 58.8105C59.1004 59.2982 58.4776 60.0337 58.088 60.924C57.6984 61.8143 57.5595 62.8194 57.6888 63.8123C57.8623 65.1437 58.5053 66.3585 59.4764 67.1894C60.4475 68.0203 61.6672 68.3993 62.8671 68.243ZM52.9744 45.2817C53.8692 45.1651 54.7056 44.7567 55.3777 44.1082C56.0499 43.4597 56.5276 42.6001 56.7506 41.6382C56.9735 40.6763 56.9316 39.6552 56.6302 38.7042C56.3287 37.7531 55.7813 36.9148 55.0571 36.2951C54.333 35.6755 53.4645 35.3024 52.5617 35.223C51.6588 35.1436 50.7621 35.3615 49.9849 35.8492C49.2077 36.3368 48.5849 37.0723 48.1953 37.9626C47.8057 38.8529 47.6668 39.8581 47.7961 40.851C47.9696 42.1824 48.6126 43.3972 49.5837 44.2281C50.5548 45.059 51.7745 45.438 52.9744 45.2817ZM40.3958 63.5124C41.2907 63.3958 42.127 62.9875 42.7992 62.3389C43.4713 61.6904 43.9491 60.8308 44.172 59.8689C44.395 58.907 44.3531 57.886 44.0516 56.9349C43.7502 55.9838 43.2028 55.1455 42.4786 54.5258C41.7544 53.9062 40.886 53.5331 39.9831 53.4537C39.0803 53.3743 38.1835 53.5923 37.4063 54.0799C36.6291 54.5676 36.0064 55.303 35.6168 56.1933C35.2272 57.0837 35.0883 58.0888 35.2176 59.0817C35.391 60.4131 36.034 61.6279 37.0052 62.4588C37.9763 63.2897 39.1959 63.6687 40.3958 63.5124Z" fill="#FE3636"/>
</g>
<defs>
<filter id="filter0_d" x="-3.92603" y="0.62439" width="90.8517" height="97.7512" filterUnits="userSpaceOnUse" color-interpolation-filters="sRGB">
<feFlood flood-opacity="0" result="BackgroundImageFix"/>
<feColorMatrix in="SourceAlpha" type="matrix" values="0 0 0 0 0 0 0 0 0 0 0 0 0 0 0 0 0 0 127 0"/>
<feOffset dy="4"/>
<feGaussianBlur stdDeviation="2"/>
<feColorMatrix type="matrix" values="0 0 0 0 0 0 0 0 0 0 0 0 0 0 0 0 0 0 0.25 0"/>
<feBlend mode="normal" in2="BackgroundImageFix" result="effect1_dropShadow"/>
<feBlend mode="normal" in="SourceGraphic" in2="effect1_dropShadow" result="shape"/>
</filter>
<clipPath id="clip0">
<rect width="73" height="81" fill="white" transform="matrix(-0.991622 0.129177 0.129177 0.991622 72.4624 0.62439)"/>
</clipPath>
</defs>
</svg>
