<svg width="81" height="89" viewBox="0 0 81 89" fill="none" xmlns="http://www.w3.org/2000/svg">
<g clip-path="url(#clip0)" filter="url(#filter0_d)">
<path d="M54.3492 0.0238245C56.6532 -0.216644 58.7976 1.35589 59.3864 3.83968L61.498 12.7418C34.7475 13.6103 16.6515 33.4047 15.5194 62.8922L7.40103 60.3957C5.1597 59.7059 3.76671 57.2823 4.03333 54.7162C7.01036 26.1163 28.4128 2.74017 54.3492 0.0238245ZM62.6857 17.7426L76.9221 77.7791C77.0256 78.2152 77.0236 78.6739 76.9163 79.1089C76.809 79.5439 76.6003 79.9399 76.311 80.2568C76.0218 80.5737 75.6624 80.8003 75.2691 80.9139C74.8757 81.0274 74.4623 81.0239 74.0706 80.9036L20.0334 64.2764C20.6423 36.6083 37.582 18.059 62.6857 17.7489V17.7426ZM58.7505 65.8126C59.6529 65.8126 60.535 65.5157 61.2853 64.9594C62.0356 64.4031 62.6204 63.6125 62.9657 62.6874C63.3111 61.7624 63.4014 60.7445 63.2254 59.7624C63.0493 58.7804 62.6148 57.8784 61.9767 57.1704C61.3386 56.4624 60.5257 55.9802 59.6406 55.7849C58.7556 55.5895 57.8382 55.6898 57.0045 56.0729C56.1709 56.4561 55.4583 57.105 54.957 57.9375C54.4556 58.77 54.188 59.7488 54.188 60.7501C54.188 62.0927 54.6687 63.3804 55.5244 64.3298C56.38 65.2792 57.5405 65.8126 58.7505 65.8126ZM51.9068 41.7657C52.8092 41.7657 53.6913 41.4688 54.4416 40.9125C55.1919 40.3563 55.7767 39.5656 56.122 38.6406C56.4673 37.7155 56.5577 36.6976 56.3816 35.7156C56.2056 34.7335 55.771 33.8315 55.133 33.1235C54.4949 32.4155 53.6819 31.9333 52.7969 31.738C51.9118 31.5427 50.9945 31.6429 50.1608 32.0261C49.3271 32.4092 48.6145 33.0581 48.1132 33.8906C47.6119 34.7232 47.3443 35.7019 47.3443 36.7032C47.3443 38.0459 47.825 39.3335 48.6806 40.2829C49.5362 41.2323 50.6967 41.7657 51.9068 41.7657ZM37.0787 58.2188C37.981 58.2188 38.8632 57.9219 39.6135 57.3657C40.3638 56.8094 40.9485 56.0187 41.2939 55.0937C41.6392 54.1686 41.7295 53.1507 41.5535 52.1687C41.3775 51.1867 40.9429 50.2846 40.3048 49.5766C39.6668 48.8686 38.8538 48.3864 37.9688 48.1911C37.0837 47.9958 36.1664 48.096 35.3327 48.4792C34.499 48.8624 33.7864 49.5112 33.2851 50.3438C32.7837 51.1763 32.5162 52.1551 32.5162 53.1563C32.5162 54.499 32.9969 55.7867 33.8525 56.7361C34.7081 57.6855 35.8686 58.2188 37.0787 58.2188Z" fill="black"/>
</g>
<defs>
<filter id="filter0_d" x="0" y="0" width="81" height="89" filterUnits="userSpaceOnUse" color-interpolation-filters="sRGB">
<feFlood flood-opacity="0" result="BackgroundImageFix"/>
<feColorMatrix in="SourceAlpha" type="matrix" values="0 0 0 0 0 0 0 0 0 0 0 0 0 0 0 0 0 0 127 0"/>
<feOffset dy="4"/>
<feGaussianBlur stdDeviation="2"/>
<feColorMatrix type="matrix" values="0 0 0 0 0 0 0 0 0 0 0 0 0 0 0 0 0 0 0.25 0"/>
<feBlend mode="normal" in2="BackgroundImageFix" result="effect1_dropShadow"/>
<feBlend mode="normal" in="SourceGraphic" in2="effect1_dropShadow" result="shape"/>
</filter>
<clipPath id="clip0">
<rect width="73" height="81" fill="white" transform="matrix(-1 0 0 1 77 0)"/>
</clipPath>
</defs>
</svg>
